<svg width="170" height="171" viewBox="0 0 170 171" fill="none" xmlns="http://www.w3.org/2000/svg">
<path d="M93.6146 4.52056C93.5891 3.70036 93.3358 3.0921 92.8544 2.69577C92.3844 2.28965 91.7582 2.05816 90.9759 2.00131C90.6587 1.97827 90.3446 1.98733 90.0334 2.02848C89.7222 2.06964 89.4396 2.15539 89.1857 2.28573C88.9423 2.41684 88.7374 2.60388 88.571 2.84686C88.4159 3.08003 88.3249 3.38163 88.298 3.75165C88.2727 4.10053 88.3524 4.39328 88.5371 4.62989C88.7332 4.8567 88.9954 5.05111 89.3237 5.21313C89.6626 5.37591 90.0453 5.52063 90.4719 5.64727C90.8992 5.76335 91.331 5.89037 91.7673 6.02836C92.2143 6.16711 92.6491 6.32624 93.0718 6.50574C93.4952 6.67468 93.8673 6.89301 94.188 7.16075C94.5192 7.42926 94.7718 7.75583 94.9457 8.14045C95.1303 8.52583 95.2022 8.99869 95.1615 9.55901C95.1177 10.1616 94.9426 10.6697 94.6363 11.0832C94.3412 11.4868 93.9723 11.8108 93.5294 12.0549C93.0874 12.2885 92.5978 12.4442 92.0607 12.5221C91.5335 12.6113 91.0108 12.6371 90.4928 12.5995C89.8585 12.5534 89.2616 12.4303 88.7022 12.2302C88.1534 12.0309 87.6738 11.757 87.2634 11.4083C86.8644 11.0498 86.556 10.613 86.3384 10.0976C86.1321 9.5725 86.0539 8.96634 86.1038 8.27915L87.5311 8.38285C87.4965 8.8586 87.5564 9.27744 87.7108 9.63938C87.8765 9.99151 88.0993 10.2893 88.3792 10.5329C88.6697 10.7772 89.0119 10.9668 89.406 11.1017C89.8 11.2366 90.2085 11.3194 90.6314 11.3501C90.9697 11.3747 91.3103 11.3676 91.6532 11.3287C92.0067 11.2906 92.3263 11.2076 92.6119 11.0795C92.8983 10.9409 93.1357 10.7456 93.3241 10.4936C93.5124 10.2416 93.6216 9.90944 93.6515 9.49712C93.6799 9.10595 93.5973 8.78111 93.4035 8.52259C93.2203 8.26483 92.9596 8.04928 92.6215 7.87592C92.2947 7.69275 91.9181 7.53785 91.4915 7.4112C91.065 7.28456 90.6278 7.15715 90.1802 7.02897C89.7438 6.89098 89.3135 6.74281 88.8893 6.58445C88.4658 6.41552 88.0873 6.21266 87.7538 5.97586C87.4316 5.72927 87.1771 5.42913 86.9902 5.07546C86.8147 4.71199 86.7458 4.27123 86.7834 3.7532C86.8249 3.1823 86.9769 2.69915 87.2395 2.30373C87.5028 1.89775 87.8343 1.57643 88.2341 1.33978C88.6453 1.09333 89.0986 0.924338 89.5941 0.832808C90.101 0.731475 90.6135 0.699628 91.1315 0.737269C91.713 0.779518 92.2472 0.887413 92.7341 1.06095C93.221 1.2345 93.6387 1.48272 93.9872 1.80563C94.3463 2.1293 94.615 2.52612 94.7934 2.99608C94.9832 3.45624 95.066 3.99897 95.0418 4.62426L93.6146 4.52056Z" fill="white"/>
<path d="M99.1776 7.63829C99.0471 8.19562 98.9901 8.7647 99.0065 9.34554C99.0254 9.91605 99.1389 10.4543 99.347 10.9603C99.5552 11.4662 99.8704 11.9102 100.293 12.2921C100.717 12.6637 101.265 12.928 101.936 13.085C102.607 13.2421 103.215 13.2484 103.76 13.1039C104.308 12.9492 104.788 12.6913 105.199 12.3303C105.61 11.9693 105.951 11.5374 106.221 11.0345C106.493 10.5213 106.695 9.98606 106.825 9.42873C106.956 8.8714 107.012 8.30748 106.993 7.73696C106.976 7.15612 106.864 6.61272 106.656 6.10676C106.448 5.60079 106.131 5.16201 105.707 4.79042C105.285 4.40852 104.738 4.13903 104.067 3.98198C103.396 3.82492 102.787 3.82378 102.239 3.97856C101.693 4.12302 101.215 4.37575 100.804 4.73674C100.393 5.09773 100.051 5.53482 99.7785 6.048C99.5084 6.55086 99.3081 7.08096 99.1776 7.63829ZM97.7069 7.29397C97.8833 6.54054 98.1608 5.84345 98.5394 5.20268C98.9308 4.55402 99.4112 4.01329 99.9806 3.5805C100.55 3.14771 101.203 2.84866 101.938 2.68335C102.673 2.51805 103.48 2.53808 104.357 2.74346C105.234 2.94885 105.966 3.28883 106.551 3.76342C107.137 4.23801 107.589 4.7956 107.907 5.43619C108.225 6.07677 108.411 6.77335 108.463 7.52592C108.528 8.27058 108.473 9.01962 108.296 9.77305C108.12 10.5265 107.836 11.2275 107.445 11.8762C107.066 12.517 106.592 13.0537 106.022 13.4865C105.453 13.9193 104.801 14.2184 104.065 14.3837C103.332 14.5387 102.527 14.5135 101.65 14.3081C100.772 14.1027 100.04 13.7679 99.4516 13.3036C98.866 12.829 98.4141 12.2714 98.0959 11.6308C97.7778 10.9902 97.5861 10.2976 97.521 9.55296C97.4685 8.80039 97.5305 8.0474 97.7069 7.29397Z" fill="white"/>
<path d="M113.226 5.55886L120.149 8.32917L119.677 9.51014L114.156 7.30098L112.815 10.652L117.657 12.5894L117.184 13.7704L112.342 11.8329L110.411 16.6601L109.008 16.099L113.226 5.55886Z" fill="white"/>
<path d="M124.728 12.1607L121.407 10.3466L122.017 9.23025L129.985 13.5827L129.375 14.699L126.054 12.8848L121.221 21.7315L119.896 21.0074L124.728 12.1607Z" fill="white"/>
<path d="M126.943 19.2638L130.741 21.8495L130.025 22.901L126.227 20.3153L126.943 19.2638Z" fill="white"/>
<path d="M141.03 26.6489C141.435 25.9321 141.551 25.23 141.38 24.5424C141.217 23.8619 140.836 23.2589 140.24 22.7336C139.73 22.2854 139.209 21.9956 138.675 21.8644C138.149 21.7402 137.623 21.7361 137.097 21.8522C136.586 21.9673 136.093 22.1827 135.617 22.4984C135.141 22.8141 134.707 23.1947 134.315 23.6402C133.888 24.1256 133.537 24.6361 133.264 25.1717C132.997 25.6994 132.835 26.2279 132.779 26.7573C132.737 27.2856 132.815 27.8064 133.013 28.3195C133.211 28.8327 133.565 29.3134 134.074 29.7616C134.448 30.0908 134.831 30.3218 135.222 30.4546C135.629 30.5865 136.03 30.636 136.426 30.6033C136.837 30.5696 137.235 30.4542 137.62 30.2569C138.006 30.0596 138.365 29.7964 138.697 29.4674L139.831 30.4654C138.774 31.4415 137.668 31.9512 136.514 31.9946C135.361 32.038 134.239 31.58 133.149 30.6204C132.488 30.0391 132.009 29.4199 131.712 28.7629C131.422 28.0979 131.289 27.4229 131.313 26.7379C131.337 26.0529 131.504 25.3664 131.813 24.6783C132.13 23.9971 132.562 23.3463 133.108 22.7257C133.654 22.1051 134.253 21.6013 134.904 21.2144C135.563 20.8195 136.238 20.5662 136.929 20.4546C137.628 20.35 138.33 20.403 139.034 20.6135C139.754 20.8231 140.44 21.215 141.092 21.7894C141.538 22.1816 141.907 22.6125 142.2 23.082C142.492 23.5516 142.692 24.0383 142.799 24.5422C142.907 25.0461 142.91 25.5641 142.808 26.0963C142.714 26.6205 142.499 27.1374 142.163 27.647L141.03 26.6489Z" fill="white"/>
<path d="M147.02 27.9141L148.005 29.059L140.365 35.6344L144.285 40.19L143.321 41.0197L138.415 35.3192L147.02 27.9141Z" fill="white"/>
<path d="M149.215 39.5423C148.733 39.85 148.294 40.2175 147.901 40.6446C147.516 41.0661 147.221 41.5305 147.016 42.038C146.812 42.5455 146.727 43.0833 146.763 43.6516C146.807 44.2141 147.015 44.7859 147.385 45.3669C147.755 45.9478 148.186 46.3771 148.677 46.6548C149.178 46.9267 149.701 47.0771 150.247 47.1059C150.794 47.1347 151.339 47.0635 151.884 46.8923C152.437 46.7154 152.955 46.4731 153.438 46.1654C153.921 45.8577 154.354 45.4931 154.739 45.0717C155.133 44.6445 155.433 44.1772 155.637 43.6698C155.841 43.1623 155.921 42.6273 155.877 42.0647C155.842 41.4965 155.639 40.9219 155.268 40.3409C154.898 39.7599 154.463 39.3335 153.962 39.0615C153.471 38.7839 152.952 38.6307 152.406 38.6019C151.86 38.5731 151.31 38.6471 150.756 38.824C150.212 38.9952 149.698 39.2346 149.215 39.5423ZM148.403 38.2687C149.056 37.8527 149.741 37.5476 150.46 37.3536C151.193 37.1627 151.915 37.1113 152.624 37.1993C153.334 37.2873 154.01 37.529 154.652 37.9244C155.293 38.3198 155.857 38.8974 156.341 39.6571C156.825 40.4168 157.111 41.171 157.199 41.9197C157.286 42.6684 157.22 43.3831 157.001 44.0637C156.781 44.7444 156.427 45.3723 155.939 45.9475C155.465 46.5259 154.902 47.0231 154.25 47.4391C153.597 47.8551 152.905 48.1585 152.171 48.3493C151.453 48.5434 150.739 48.5965 150.029 48.5084C149.319 48.4204 148.643 48.1787 148.002 47.7833C147.369 47.3823 146.81 46.8018 146.326 46.0421C145.841 45.2824 145.551 44.531 145.454 43.788C145.367 43.0393 145.433 42.3247 145.653 41.644C145.872 40.9634 146.219 40.3338 146.693 39.7554C147.181 39.1802 147.751 38.6846 148.403 38.2687Z" fill="white"/>
<path d="M160.361 55.3045C161.076 54.9019 161.498 54.3956 161.626 53.7854C161.768 53.1807 161.683 52.5185 161.371 51.7989C161.245 51.5071 161.091 51.2329 160.911 50.9762C160.73 50.7195 160.523 50.5088 160.29 50.3442C160.061 50.1893 159.8 50.0944 159.508 50.0595C159.229 50.03 158.92 50.0891 158.58 50.2368C158.259 50.3759 158.036 50.5822 157.912 50.8555C157.802 51.1344 157.751 51.4568 157.76 51.8228C157.772 52.1986 157.821 52.6048 157.907 53.0415C158.002 53.4739 158.089 53.9155 158.169 54.3661C158.253 54.8264 158.314 55.2855 158.351 55.7432C158.397 56.1968 158.376 56.6277 158.287 57.0359C158.203 57.4538 158.03 57.8289 157.77 58.1613C157.514 58.5034 157.129 58.7863 156.613 59.0098C156.059 59.2502 155.527 59.3304 155.019 59.2505C154.525 59.1761 154.067 58.9992 153.645 58.7199C153.233 58.4363 152.868 58.0746 152.551 57.6348C152.227 57.2089 151.962 56.7576 151.756 56.2811C151.503 55.6976 151.335 55.1117 151.253 54.5233C151.176 53.9446 151.196 53.3926 151.315 52.8674C151.448 52.3477 151.692 51.872 152.048 51.4404C152.418 51.0143 152.919 50.6641 153.551 50.39L154.12 51.7028C153.682 51.8926 153.339 52.1398 153.09 52.4443C152.855 52.7543 152.694 53.0897 152.608 53.4506C152.526 53.8212 152.516 54.2123 152.579 54.624C152.642 55.0358 152.758 55.4361 152.927 55.8251C153.062 56.1363 153.226 56.4348 153.419 56.7207C153.617 57.0164 153.839 57.2611 154.084 57.4549C154.34 57.6444 154.623 57.7643 154.934 57.8145C155.244 57.8646 155.589 57.8075 155.968 57.643C156.328 57.4869 156.578 57.2632 156.717 56.9717C156.861 56.6899 156.931 56.359 156.928 55.979C156.939 55.6046 156.901 55.199 156.816 54.7623C156.731 54.3257 156.641 53.8793 156.547 53.4231C156.467 52.9725 156.399 52.5225 156.343 52.0732C156.297 51.6197 156.301 51.1903 156.356 50.785C156.426 50.3852 156.574 50.0206 156.8 49.6912C157.041 49.3672 157.4 49.1019 157.876 48.8952C158.402 48.6675 158.9 48.5784 159.372 48.6278C159.854 48.6731 160.292 48.818 160.687 49.0627C161.096 49.3128 161.456 49.6363 161.767 50.033C162.091 50.4352 162.357 50.8746 162.564 51.3511C162.796 51.886 162.948 52.4094 163.019 52.9213C163.091 53.4332 163.065 53.9184 162.94 54.3768C162.82 54.845 162.592 55.267 162.259 55.6429C161.939 56.0242 161.496 56.349 160.931 56.6173L160.361 55.3045Z" fill="white"/>
<path d="M165.334 59.2454L167.406 66.8055L166.179 67.1416L164.507 61.0383L161.026 61.9921L162.584 67.6813L161.358 68.0174L159.799 62.3282L156.011 63.366L157.696 69.5152L156.469 69.8514L154.385 62.2453L165.334 59.2454Z" fill="white"/>
<path d="M167.735 78.2413L167.462 74.467L168.731 74.3753L169.385 83.4306L168.116 83.5222L167.844 79.7479L157.789 80.4744L157.68 78.9679L167.735 78.2413Z" fill="white"/>
<path d="M169.342 86.5981L168.867 94.4224L167.597 94.3454L167.98 88.0288L164.378 87.8104L164.021 93.6985L162.751 93.6215L163.108 87.7334L159.188 87.4957L158.802 93.8599L157.532 93.7829L158.01 85.9109L169.342 86.5981Z" fill="white"/>
<path d="M163.373 105.313C164.196 105.314 164.865 105.072 165.381 104.585C165.894 104.109 166.233 103.482 166.398 102.704C166.539 102.041 166.535 101.444 166.388 100.914C166.238 100.395 165.984 99.9344 165.625 99.533C165.274 99.1443 164.844 98.82 164.336 98.5603C163.827 98.3007 163.283 98.1091 162.702 97.9858C162.07 97.8515 161.453 97.7963 160.852 97.8204C160.261 97.8466 159.721 97.9649 159.232 98.1753C158.752 98.3983 158.336 98.7218 157.986 99.1459C157.636 99.57 157.39 100.114 157.249 100.777C157.146 101.265 157.132 101.712 157.208 102.118C157.293 102.537 157.446 102.911 157.669 103.24C157.9 103.581 158.196 103.872 158.557 104.111C158.918 104.35 159.323 104.534 159.773 104.662L159.459 106.139C158.09 105.697 157.104 104.984 156.5 103.999C155.896 103.015 155.745 101.813 156.047 100.392C156.23 99.5315 156.535 98.8106 156.961 98.2294C157.399 97.6504 157.922 97.2034 158.53 96.8884C159.139 96.5734 159.819 96.3819 160.57 96.3139C161.32 96.2563 162.099 96.3134 162.907 96.4852C163.716 96.6569 164.449 96.9318 165.105 97.3096C165.772 97.6897 166.324 98.1536 166.76 98.7014C167.194 99.2596 167.492 99.8972 167.654 100.614C167.825 101.344 167.819 102.134 167.639 102.984C167.515 103.565 167.321 104.098 167.055 104.583C166.79 105.069 166.463 105.482 166.077 105.822C165.69 106.163 165.24 106.419 164.727 106.592C164.224 106.767 163.668 106.833 163.059 106.79L163.373 105.313Z" fill="white"/>
<path d="M165.159 111.517L164.609 112.924L160.063 111.147L157.886 116.715L162.432 118.492L161.882 119.899L151.309 115.765L151.859 114.358L156.701 116.252L158.878 110.684L154.035 108.79L154.585 107.384L165.159 111.517Z" fill="white"/>
<path d="M159.84 124.084L159.021 125.465L148.053 125.911L148.037 125.938L155.955 130.634L155.225 131.865L145.461 126.074L146.305 124.651L157.166 124.198L157.182 124.171L149.346 119.523L150.076 118.292L159.84 124.084Z" fill="white"/>
<path d="M147.633 132.693C147.196 132.323 146.714 132.014 146.189 131.765C145.672 131.523 145.141 131.38 144.596 131.336C144.051 131.292 143.512 131.372 142.98 131.575C142.456 131.784 141.972 132.153 141.528 132.679C141.083 133.206 140.802 133.745 140.683 134.296C140.572 134.855 140.585 135.399 140.72 135.929C140.855 136.46 141.085 136.959 141.411 137.428C141.744 137.904 142.13 138.326 142.567 138.695C143.005 139.064 143.482 139.37 143.999 139.612C144.524 139.861 145.059 140.008 145.605 140.052C146.15 140.096 146.684 140.013 147.208 139.803C147.74 139.6 148.228 139.235 148.673 138.709C149.117 138.182 149.395 137.64 149.505 137.081C149.624 136.53 149.616 135.989 149.481 135.459C149.346 134.928 149.111 134.425 148.778 133.95C148.452 133.481 148.071 133.062 147.633 132.693ZM148.607 131.538C149.199 132.037 149.694 132.601 150.093 133.229C150.494 133.872 150.757 134.546 150.885 135.249C151.012 135.953 150.982 136.67 150.796 137.401C150.61 138.131 150.226 138.841 149.645 139.529C149.064 140.218 148.429 140.715 147.74 141.022C147.052 141.328 146.35 141.478 145.634 141.471C144.919 141.464 144.214 141.313 143.52 141.018C142.827 140.738 142.185 140.349 141.593 139.85C141.002 139.351 140.506 138.78 140.105 138.136C139.706 137.508 139.443 136.842 139.316 136.138C139.188 135.435 139.218 134.718 139.404 133.987C139.599 133.264 139.987 132.558 140.568 131.869C141.149 131.18 141.78 130.679 142.46 130.366C143.149 130.06 143.851 129.91 144.566 129.917C145.281 129.924 145.985 130.068 146.679 130.348C147.373 130.642 148.016 131.039 148.607 131.538Z" fill="white"/>
<path d="M143.186 146.07L142.057 147.074L135.355 139.544L130.866 143.54L130.02 142.59L135.638 137.589L143.186 146.07Z" fill="white"/>
<path d="M131.592 148.461C131.277 147.984 130.902 147.552 130.468 147.165C130.041 146.787 129.571 146.5 129.06 146.304C128.55 146.108 128.01 146.033 127.443 146.078C126.881 146.131 126.313 146.348 125.738 146.728C125.164 147.108 124.741 147.546 124.472 148.042C124.209 148.547 124.067 149.073 124.047 149.619C124.028 150.166 124.108 150.71 124.288 151.252C124.474 151.802 124.725 152.316 125.041 152.794C125.357 153.271 125.728 153.699 126.156 154.077C126.59 154.463 127.062 154.755 127.573 154.951C128.084 155.147 128.62 155.218 129.182 155.164C129.749 155.119 130.32 154.907 130.895 154.527C131.47 154.147 131.889 153.704 132.152 153.2C132.422 152.704 132.566 152.182 132.586 151.636C132.606 151.089 132.523 150.54 132.336 149.99C132.156 149.448 131.908 148.939 131.592 148.461ZM132.852 147.628C133.279 148.273 133.596 148.954 133.802 149.669C134.005 150.399 134.068 151.119 133.992 151.831C133.916 152.542 133.686 153.221 133.301 153.87C132.916 154.518 132.348 155.091 131.597 155.588C130.845 156.085 130.096 156.383 129.349 156.483C128.602 156.583 127.886 156.529 127.202 156.321C126.518 156.113 125.884 155.769 125.301 155.291C124.714 154.827 124.208 154.272 123.781 153.627C123.354 152.981 123.039 152.294 122.836 151.564C122.63 150.849 122.565 150.136 122.641 149.424C122.717 148.713 122.948 148.033 123.332 147.385C123.723 146.746 124.294 146.178 125.045 145.681C125.797 145.184 126.543 144.881 127.285 144.772C128.032 144.672 128.747 144.726 129.432 144.934C130.116 145.142 130.751 145.478 131.337 145.942C131.921 146.421 132.426 146.983 132.852 147.628Z" fill="white"/>
<path d="M111.508 154.62C111.674 153.896 112.002 153.28 112.495 152.77C112.992 152.271 113.545 151.885 114.155 151.613C114.93 151.268 115.685 151.1 116.42 151.109C117.159 151.128 117.85 151.285 118.492 151.579C119.133 151.874 119.706 152.286 120.209 152.816C120.712 153.346 121.114 153.95 121.416 154.628C121.752 155.383 121.97 156.145 122.068 156.914C122.162 157.696 122.119 158.434 121.941 159.129C121.753 159.827 121.421 160.463 120.945 161.034C120.463 161.62 119.811 162.097 118.988 162.463C118.426 162.713 117.868 162.88 117.314 162.965C116.754 163.063 116.218 163.058 115.706 162.95C115.184 162.846 114.695 162.634 114.24 162.315C113.779 162.01 113.364 161.574 112.995 161.007L114.375 160.392C114.62 160.759 114.897 161.042 115.206 161.241C115.519 161.449 115.852 161.585 116.205 161.648C116.558 161.712 116.929 161.709 117.316 161.641C117.698 161.587 118.083 161.474 118.47 161.301C119.099 161.021 119.586 160.653 119.929 160.199C120.262 159.749 120.481 159.251 120.586 158.705C120.686 158.173 120.685 157.611 120.583 157.018C120.486 156.435 120.314 155.867 120.069 155.315C119.827 154.773 119.517 154.285 119.137 153.85C118.763 153.425 118.339 153.086 117.866 152.832C117.398 152.589 116.894 152.447 116.355 152.409C115.81 152.385 115.247 152.502 114.666 152.761C114.124 153.002 113.684 153.303 113.345 153.663C113.006 154.022 112.763 154.415 112.616 154.84C112.464 155.279 112.405 155.735 112.441 156.206C112.481 156.687 112.617 157.16 112.847 157.626L116.159 156.151L116.677 157.313L112.13 159.338L109.698 153.877L110.57 153.489L111.508 154.62Z" fill="white"/>
<path d="M104.692 160.072L103.472 155.593L104.929 155.196L106.149 159.675L112.146 164.996L110.413 165.468L105.709 161.146L103.923 167.236L102.266 167.687L104.692 160.072Z" fill="white"/>
<path d="M94.669 169.902L93.5939 170.016L91.9173 154.221L92.9925 154.107L94.669 169.902Z" fill="white"/>
<path d="M77.9543 165.71C77.995 166.53 78.2597 167.133 78.7483 167.52C79.2258 167.918 79.8562 168.137 80.6395 168.18C80.957 168.197 81.271 168.182 81.5814 168.135C81.8917 168.088 82.1726 167.997 82.4241 167.862C82.6649 167.726 82.8663 167.535 83.0282 167.289C83.1789 167.053 83.2643 166.75 83.2842 166.38C83.3031 166.03 83.2179 165.739 83.0288 165.506C82.8285 165.283 82.5628 165.093 82.2315 164.938C81.8896 164.781 81.5042 164.644 81.0754 164.525C80.646 164.417 80.2119 164.298 79.773 164.168C79.3236 164.038 78.8859 163.887 78.4599 163.715C78.0334 163.554 77.6573 163.343 77.3317 163.081C76.9956 162.819 76.7369 162.497 76.5558 162.116C76.3641 161.734 76.2833 161.262 76.3136 160.701C76.3461 160.098 76.5117 159.587 76.8103 159.168C77.0977 158.759 77.4606 158.428 77.8988 158.175C78.3364 157.934 78.823 157.769 79.3585 157.681C79.884 157.582 80.4061 157.546 80.9247 157.574C81.5598 157.609 82.1589 157.721 82.7219 157.91C83.2743 158.099 83.7589 158.364 84.1758 158.705C84.5815 159.056 84.8979 159.487 85.1251 159.998C85.3412 160.519 85.4306 161.124 85.3935 161.812L83.9646 161.735C83.9903 161.259 83.9226 160.841 83.7615 160.482C83.5892 160.133 83.3609 159.839 83.0765 159.601C82.7816 159.362 82.4358 159.179 82.0393 159.052C81.6428 158.924 81.2329 158.849 80.8095 158.826C80.4708 158.808 80.1304 158.821 79.7882 158.867C79.4355 158.911 79.1175 159 78.8344 159.134C78.5506 159.277 78.3169 159.477 78.1333 159.733C77.9497 159.988 77.8467 160.322 77.8245 160.735C77.8033 161.127 77.8921 161.45 78.0906 161.705C78.2786 161.959 78.5433 162.17 78.8846 162.337C79.2147 162.514 79.5942 162.662 80.023 162.78C80.4519 162.899 80.8913 163.018 81.3413 163.138C81.7801 163.268 82.2131 163.408 82.6402 163.558C83.0668 163.719 83.449 163.915 83.7869 164.146C84.1136 164.386 84.3737 164.682 84.5671 165.032C84.7494 165.392 84.8265 165.831 84.7985 166.35C84.7677 166.921 84.6248 167.407 84.3696 167.808C84.1139 168.218 83.7884 168.546 83.3931 168.79C82.9866 169.044 82.5365 169.221 82.0428 169.322C81.5379 169.433 81.0261 169.474 80.5075 169.446C79.9253 169.415 79.3892 169.317 78.8992 169.153C78.4091 168.988 77.9868 168.748 77.6324 168.432C77.2673 168.115 76.9912 167.723 76.804 167.256C76.6057 166.8 76.5128 166.259 76.5253 165.633L77.9543 165.71Z" fill="white"/>
<path d="M72.3406 162.699C72.4605 162.139 72.5067 161.569 72.4792 160.989C72.4495 160.418 72.3258 159.882 72.1081 159.381C71.8903 158.879 71.5668 158.441 71.1373 158.067C70.7056 157.704 70.1529 157.45 69.4792 157.305C68.8055 157.161 68.1973 157.166 67.6547 157.321C67.1098 157.486 66.6353 157.753 66.2311 158.122C65.8269 158.491 65.4946 158.929 65.234 159.437C64.9713 159.955 64.78 160.494 64.6601 161.054C64.5403 161.614 64.4952 162.179 64.5249 162.749C64.5524 163.329 64.675 163.87 64.8927 164.372C65.1104 164.874 65.4351 165.307 65.8668 165.67C66.2962 166.044 66.8478 166.303 67.5215 166.447C68.1952 166.592 68.8045 166.581 69.3494 166.416C69.892 166.261 70.3655 165.999 70.7696 165.631C71.1738 165.262 71.5073 164.818 71.77 164.3C72.0305 163.792 72.2207 163.258 72.3406 162.699ZM73.8176 163.015C73.6556 163.772 73.3914 164.474 73.025 165.122C72.646 165.778 72.176 166.327 71.6149 166.771C71.0538 167.215 70.4071 167.526 69.675 167.705C68.9428 167.884 68.1362 167.88 67.2552 167.691C66.3741 167.502 65.6364 167.176 65.0418 166.713C64.4472 166.25 63.9848 165.701 63.6546 165.066C63.3243 164.432 63.1258 163.739 63.059 162.988C62.9797 162.244 63.0211 161.494 63.1831 160.738C63.3452 159.981 63.6156 159.275 63.9946 158.619C64.361 157.971 64.8247 157.425 65.3859 156.982C65.947 156.538 66.5936 156.227 67.3258 156.047C68.0557 155.879 68.8612 155.888 69.7422 156.077C70.6233 156.266 71.3622 156.587 71.9589 157.04C72.5535 157.503 73.0159 158.052 73.3462 158.686C73.6765 159.321 73.8812 160.01 73.9606 160.753C74.0273 161.504 73.9797 162.258 73.8176 163.015Z" fill="white"/>
<path d="M58.3082 165.036L51.3342 162.396L51.7846 161.206L57.3459 163.312L58.6239 159.936L53.7466 158.09L54.197 156.9L59.0743 158.747L60.9153 153.884L62.3279 154.419L58.3082 165.036Z" fill="white"/>
<path d="M46.6944 158.655L50.0489 160.407L49.4601 161.535L41.4123 157.332L42.001 156.205L45.3555 157.956L50.0213 149.021L51.3603 149.72L46.6944 158.655Z" fill="white"/>
<path d="M44.3424 151.592L40.4964 149.078L41.1924 148.013L45.0385 150.527L44.3424 151.592Z" fill="white"/>
<path d="M30.1232 144.472C29.7316 145.196 29.6279 145.901 29.8121 146.585C29.9882 147.262 30.3795 147.858 30.9859 148.372C31.5033 148.811 32.0303 149.091 32.5667 149.212C33.095 149.327 33.621 149.321 34.1446 149.195C34.6533 149.07 35.1424 148.846 35.6121 148.521C36.0817 148.197 36.5085 147.808 36.8924 147.356C37.3105 146.862 37.6515 146.346 37.9154 145.805C38.1723 145.272 38.3241 144.741 38.3707 144.211C38.4023 143.682 38.3145 143.162 38.1071 142.653C37.8997 142.144 37.5372 141.67 37.0198 141.231C36.6398 140.909 36.2528 140.685 35.8589 140.559C35.4501 140.435 35.048 140.393 34.6528 140.433C34.2425 140.474 33.8465 140.597 33.4647 140.802C33.083 141.006 32.7292 141.276 32.4033 141.611L31.2512 140.634C32.2898 139.639 33.3855 139.108 34.5383 139.044C35.6912 138.979 36.8214 139.416 37.9291 140.355C38.6002 140.924 39.0904 141.534 39.3997 142.186C39.7022 142.845 39.8478 143.517 39.8366 144.203C39.8253 144.888 39.6715 145.578 39.3752 146.271C39.0707 146.958 38.6512 147.617 38.1165 148.248C37.5818 148.878 36.9925 149.393 36.3485 149.792C35.6976 150.199 35.0276 150.465 34.3384 150.589C33.6411 150.707 32.9384 150.667 32.2303 150.47C31.5072 150.273 30.8141 149.894 30.1511 149.332C29.6984 148.948 29.3213 148.524 29.0198 148.06C28.7184 147.596 28.5094 147.113 28.3929 146.612C28.2764 146.11 28.2638 145.592 28.3552 145.058C28.4397 144.532 28.645 144.011 28.9711 143.495L30.1232 144.472Z" fill="white"/>
<path d="M24.1102 143.319L23.1039 142.192L30.6212 135.476L26.6169 130.994L27.5654 130.146L32.5761 135.755L24.1102 143.319Z" fill="white"/>
<path d="M21.6964 131.729C22.1733 131.413 22.6047 131.037 22.9906 130.603C23.3677 130.174 23.6537 129.704 23.8487 129.193C24.0437 128.682 24.1181 128.143 24.0721 127.575C24.0173 127.014 23.7993 126.446 23.4182 125.872C23.0371 125.298 22.5983 124.877 22.102 124.608C21.5968 124.346 21.0708 124.205 20.524 124.186C19.9772 124.168 19.4332 124.249 18.8919 124.43C18.3418 124.618 17.8283 124.869 17.3515 125.186C16.8746 125.503 16.4476 125.875 16.0705 126.304C15.6846 126.738 15.3942 127.211 15.1992 127.722C15.0042 128.233 14.9342 128.77 14.989 129.331C15.035 129.899 15.2486 130.47 15.6297 131.044C16.0108 131.618 16.454 132.036 16.9592 132.298C17.4555 132.567 17.9771 132.71 18.5239 132.729C19.0707 132.748 19.6191 132.663 20.1692 132.476C20.7105 132.295 21.2196 132.046 21.6964 131.729ZM22.532 132.988C21.8874 133.416 21.2077 133.734 20.4929 133.941C19.7634 134.145 19.043 134.21 18.3317 134.135C17.6204 134.061 16.9402 133.832 16.2912 133.448C15.6422 133.065 15.0684 132.498 14.57 131.747C14.0716 130.997 13.7717 130.248 13.6701 129.501C13.5686 128.754 13.6214 128.038 13.8284 127.354C14.0355 126.669 14.3776 126.035 14.855 125.45C15.3176 124.863 15.8713 124.356 16.5159 123.928C17.1605 123.5 17.8476 123.183 18.577 122.979C19.2918 122.772 20.0049 122.705 20.7162 122.78C21.4275 122.855 22.1077 123.084 22.7567 123.467C23.3969 123.857 23.9662 124.426 24.4646 125.177C24.963 125.928 25.2674 126.673 25.3778 127.415C25.4793 128.161 25.4265 128.877 25.2195 129.562C25.0124 130.246 24.6776 130.882 24.2149 131.469C23.7376 132.054 23.1766 132.56 22.532 132.988Z" fill="white"/>
<path d="M10.2641 116.192C9.55681 116.608 9.14483 117.122 9.02819 117.735C8.8975 118.342 8.99498 119.003 9.32063 119.716C9.45265 120.005 9.6114 120.277 9.79688 120.53C9.98236 120.783 10.1932 120.99 10.4294 121.15C10.6613 121.301 10.9237 121.391 11.2167 121.42C11.4958 121.444 11.804 121.379 12.1415 121.225C12.4598 121.08 12.6783 120.87 12.7972 120.594C12.9021 120.313 12.9468 119.99 12.9313 119.624C12.9115 119.249 12.8547 118.843 12.7611 118.408C12.6578 117.978 12.5619 117.538 12.4736 117.089C12.3808 116.63 12.3116 116.172 12.2662 115.715C12.2112 115.263 12.2241 114.832 12.3051 114.422C12.3817 114.002 12.5469 113.624 12.8008 113.287C13.0503 112.94 13.4306 112.65 13.9417 112.417C14.4914 112.166 15.0211 112.075 15.5309 112.146C16.0267 112.211 16.4879 112.379 16.9147 112.65C17.3318 112.926 17.7034 113.281 18.0295 113.715C18.3609 114.134 18.6343 114.58 18.85 115.053C19.114 115.632 19.2925 116.214 19.3855 116.801C19.4741 117.378 19.464 117.93 19.3551 118.458C19.2322 118.98 18.9969 119.46 18.6493 119.898C18.2876 120.331 17.7934 120.691 17.1666 120.977L16.5725 119.675C17.0064 119.477 17.3451 119.223 17.5885 118.914C17.8179 118.6 17.9722 118.262 18.0515 117.899C18.1264 117.527 18.1285 117.136 18.0577 116.725C17.9869 116.315 17.8635 115.917 17.6874 115.531C17.5466 115.222 17.3769 114.927 17.1782 114.645C16.9751 114.353 16.7488 114.113 16.4994 113.923C16.2404 113.739 15.9551 113.624 15.6436 113.58C15.3321 113.536 14.9883 113.599 14.6122 113.771C14.2554 113.934 14.0101 114.162 13.8763 114.456C13.7381 114.741 13.6742 115.073 13.6844 115.453C13.6805 115.827 13.7254 116.232 13.8191 116.667C13.9127 117.102 14.0108 117.547 14.1132 118.001C14.2016 118.45 14.2781 118.899 14.3429 119.347C14.3979 119.799 14.4016 120.229 14.354 120.635C14.2923 121.036 14.1512 121.403 13.9306 121.737C13.696 122.066 13.3424 122.338 12.8699 122.553C12.3491 122.791 11.8523 122.889 11.3794 122.849C10.8969 122.813 10.4558 122.676 10.0563 122.439C9.64277 122.197 9.27692 121.88 8.95877 121.489C8.62658 121.093 8.35266 120.659 8.13703 120.186C7.89499 119.656 7.73324 119.136 7.65177 118.625C7.5703 118.115 7.58756 117.629 7.70355 117.168C7.81514 116.698 8.03426 116.272 8.36091 115.89C8.67352 115.502 9.1099 115.169 9.67006 114.89L10.2641 116.192Z" fill="white"/>
<path d="M5.21625 112.343L3.00235 104.823L4.22257 104.464L6.00985 110.534L9.47221 109.515L7.80617 103.856L9.02638 103.497L10.6924 109.156L14.4598 108.047L12.6591 101.93L13.8793 101.571L16.1067 109.136L5.21625 112.343Z" fill="white"/>
<path d="M2.4581 93.3932L2.80116 97.1618L1.53439 97.2771L0.711338 88.2356L1.9781 88.1203L2.32116 91.8889L12.3603 90.975L12.4972 92.4793L2.4581 93.3932Z" fill="white"/>
<path d="M0.697021 85.0763L1.02533 77.2445L2.29622 77.2978L2.03117 83.6204L5.6373 83.7716L5.88437 77.8779L7.15525 77.9312L6.90819 83.8249L10.832 83.9894L11.0991 77.6191L12.37 77.6723L12.0397 85.5518L0.697021 85.0763Z" fill="white"/>
<path d="M6.3167 66.2343C5.49356 66.2482 4.82902 66.5032 4.32307 66.9994C3.81914 67.4851 3.49187 68.1183 3.34127 68.8989C3.21276 69.565 3.22722 70.1615 3.38464 70.6885C3.54408 71.205 3.80704 71.6606 4.17353 72.0552C4.53163 72.4373 4.96723 72.7535 5.48033 73.0036C5.99344 73.2537 6.54142 73.435 7.12428 73.5475C7.75917 73.6699 8.37689 73.7135 8.97745 73.6783C9.5676 73.641 10.1052 73.5126 10.5901 73.2931C11.0667 73.0612 11.476 72.7299 11.8182 72.2993C12.1604 71.8688 12.3957 71.3204 12.5242 70.6543C12.6186 70.1651 12.6239 69.7181 12.54 69.3133C12.4478 68.8961 12.2873 68.5251 12.0584 68.2002C11.8212 67.863 11.5199 67.5782 11.1546 67.3457C10.7892 67.1133 10.3805 66.9373 9.92857 66.8177L10.2147 65.3346C11.5917 65.7514 12.5912 66.4462 13.2131 67.419C13.8351 68.3919 14.0086 69.5912 13.7335 71.0171C13.5668 71.881 13.2755 72.6075 12.8596 73.1966C12.4333 73.7836 11.9187 74.2403 11.316 74.5667C10.7133 74.893 10.0369 75.0972 9.28703 75.1792C8.53912 75.2508 7.75925 75.2083 6.94742 75.0517C6.13559 74.8951 5.39789 74.634 4.73432 74.2685C4.06034 73.9009 3.50011 73.4474 3.05363 72.9079C2.60916 72.3579 2.29926 71.726 2.12393 71.012C1.9402 70.2857 1.93066 69.4958 2.09531 68.6423C2.20776 68.0594 2.39224 67.5229 2.64876 67.0326C2.90528 66.5423 3.22362 66.1233 3.60376 65.7756C3.98391 65.428 4.42906 65.163 4.93922 64.9807C5.43898 64.7965 5.99352 64.7199 6.60284 64.7511L6.3167 66.2343Z" fill="white"/>
<path d="M4.41549 60.0625L4.93907 58.6456L9.51775 60.3376L11.59 54.7298L7.01134 53.0378L7.53492 51.621L18.1837 55.5561L17.6601 56.973L12.7832 55.1707L10.7109 60.7785L15.5878 62.5807L15.0643 63.9976L4.41549 60.0625Z" fill="white"/>
<path d="M9.49501 47.4045L10.2883 46.0082L21.2459 45.3575L21.2616 45.3299L13.2571 40.7824L13.9639 39.5382L23.8348 45.146L23.018 46.5837L12.1669 47.24L12.1512 47.2677L20.0728 51.768L19.3659 53.0123L9.49501 47.4045Z" fill="white"/>
<path d="M21.5387 38.5702C21.983 38.9311 22.4699 39.2311 22.9995 39.4703C23.5209 39.7027 24.0546 39.8359 24.6006 39.8698C25.1467 39.9038 25.6837 39.8143 26.2118 39.6015C26.7316 39.3819 27.2088 39.0048 27.6433 38.4701C28.0778 37.9353 28.3493 37.3911 28.4578 36.8373C28.5581 36.2769 28.5357 35.7329 28.3908 35.2053C28.2458 34.6778 28.0062 34.1826 27.672 33.7199C27.3296 33.2504 26.9362 32.8352 26.492 32.4742C26.0477 32.1133 25.5649 31.8166 25.0436 31.5842C24.514 31.345 23.9762 31.2085 23.4301 31.1746C22.8841 31.1406 22.3511 31.2334 21.8313 31.4529C21.3032 31.6658 20.8219 32.0396 20.3874 32.5743C19.9529 33.109 19.6856 33.6566 19.5853 34.2171C19.4768 34.7708 19.495 35.3115 19.64 35.8391C19.785 36.3666 20.0287 36.8651 20.3711 37.3346C20.7053 37.7973 21.0945 38.2092 21.5387 38.5702ZM20.5862 39.7424C19.9857 39.2545 19.48 38.7002 19.0692 38.0796C18.6568 37.444 18.3805 36.7756 18.2401 36.0742C18.0998 35.3729 18.116 34.6554 18.2888 33.9216C18.4616 33.1879 18.8321 32.4714 19.4002 31.7722C19.9684 31.0729 20.5939 30.5636 21.2768 30.2444C21.9596 29.9251 22.6586 29.7624 23.3738 29.7562C24.0891 29.7501 24.7966 29.8879 25.4964 30.1697C26.1946 30.4365 26.844 30.814 27.4445 31.3019C28.0451 31.7899 28.5515 32.3517 28.9639 32.9872C29.3747 33.6078 29.6503 34.2688 29.7906 34.9701C29.931 35.6715 29.9147 36.389 29.7419 37.1227C29.5609 37.8498 29.1863 38.5629 28.6182 39.2622C28.05 39.9614 27.4286 40.4741 26.754 40.8C26.0711 41.1193 25.3721 41.282 24.6569 41.2882C23.9417 41.2943 23.2349 41.164 22.5367 40.8971C21.8369 40.6153 21.1867 40.2304 20.5862 39.7424Z" fill="white"/>
<path d="M25.7375 25.1118L26.847 24.0868L33.6876 31.4911L38.1022 27.4126L38.9654 28.3469L33.4413 33.4504L25.7375 25.1118Z" fill="white"/>
<path d="M37.2845 22.5052C37.6091 22.9767 37.9918 23.4017 38.4326 23.7803C38.8674 24.1502 39.3419 24.4283 39.8563 24.6147C40.3707 24.8011 40.9112 24.8666 41.4778 24.8111C42.0385 24.7468 42.6026 24.5194 43.1701 24.1287C43.7376 23.738 44.1514 23.2923 44.4115 22.7915C44.6656 22.282 44.7974 21.7537 44.8069 21.2067C44.8163 20.6597 44.7259 20.1171 44.5356 19.5789C44.3393 19.032 44.0788 18.5228 43.7543 18.0513C43.4297 17.5799 43.05 17.1592 42.6152 16.7893C42.1744 16.4107 41.6968 16.1282 41.1825 15.9418C40.6681 15.7554 40.1306 15.6944 39.5699 15.7586C39.0033 15.8141 38.4362 16.0372 37.8687 16.4279C37.3012 16.8185 36.8904 17.2686 36.6363 17.7782C36.3762 18.2789 36.2414 18.8028 36.2319 19.3499C36.2224 19.8969 36.3158 20.4438 36.5122 20.9907C36.7025 21.5289 36.9599 22.0337 37.2845 22.5052ZM36.0403 23.3617C35.6015 22.7244 35.2725 22.0501 35.0531 21.3389C34.8365 20.6129 34.7596 19.8937 34.8225 19.1812C34.8854 18.4687 35.1031 17.7848 35.4755 17.1295C35.848 16.4741 36.4053 15.891 37.1474 15.3801C37.8896 14.8692 38.6332 14.5568 39.3783 14.4427C40.1234 14.3287 40.84 14.3695 41.528 14.5651C42.216 14.7606 42.856 15.0921 43.4481 15.5596C44.0429 16.0124 44.5597 16.5574 44.9985 17.1948C45.4372 17.8322 45.7649 18.5139 45.9816 19.2398C46.2009 19.951 46.2792 20.6629 46.2163 21.3753C46.1534 22.0878 45.9357 22.7717 45.5633 23.4271C45.1848 24.0737 44.6245 24.6524 43.8823 25.1633C43.1402 25.6742 42.3996 25.9911 41.6604 26.1138C40.9153 26.2278 40.1988 26.1871 39.5108 25.9915C38.8228 25.7959 38.1814 25.4718 37.5866 25.019C36.9945 24.5515 36.4791 23.9991 36.0403 23.3617Z" fill="white"/>
<path d="M57.2417 15.9755C57.0902 16.7018 56.7731 17.3243 56.2902 17.843C55.8029 18.3521 55.2569 18.7482 54.6521 19.0314C53.8841 19.3909 53.1325 19.5731 52.3974 19.5779C51.6577 19.573 50.9644 19.4295 50.3172 19.1473C49.6701 18.8651 49.0901 18.4636 48.5771 17.943C48.0642 17.4224 47.6504 16.8261 47.3357 16.1541C46.9852 15.4053 46.7533 14.6477 46.6403 13.8814C46.5324 13.1009 46.5609 12.3619 46.7259 11.6643C46.9005 10.9622 47.2205 10.3208 47.6859 9.74005C48.1565 9.14519 48.7998 8.65674 49.6158 8.27469C50.1726 8.014 50.7272 7.83624 51.2797 7.74141C51.8374 7.63248 52.3733 7.62732 52.8877 7.72593C53.4116 7.82005 53.9043 8.02242 54.3658 8.33306C54.8324 8.62961 55.2552 9.0578 55.6344 9.61765L54.2664 10.2581C54.0149 9.89601 53.7328 9.61844 53.4201 9.42545C53.1028 9.22285 52.7671 9.09328 52.4129 9.03673C52.0587 8.98018 51.6886 8.98961 51.3025 9.06502C50.9216 9.12634 50.5391 9.24689 50.1551 9.42668C49.5311 9.71883 49.052 10.0953 48.7176 10.5562C48.3929 11.0125 48.1832 11.5145 48.0885 12.0622C47.9988 12.5957 48.0104 13.1579 48.1232 13.7489C48.2316 14.3302 48.4138 14.8944 48.67 15.4416C48.9217 15.9792 49.2412 16.4617 49.6285 16.8889C50.0114 17.3066 50.4415 17.6378 50.9189 17.8824C51.3918 18.1175 51.8981 18.2491 52.438 18.2772C52.983 18.2913 53.5435 18.1635 54.1194 17.8938C54.657 17.6421 55.0918 17.3332 55.4237 16.9671C55.7556 16.601 55.991 16.204 56.1301 15.7761C56.2743 15.3341 56.324 14.8777 56.2792 14.4071C56.2299 13.9269 56.0856 13.4561 55.8461 12.9947L52.563 14.5319L52.0236 13.3799L56.5307 11.2696L59.0657 16.684L58.2018 17.0885L57.2417 15.9755Z" fill="white"/>
<path d="M63.9561 10.3943L65.2603 14.8501L63.8107 15.2744L62.5064 10.8186L56.4098 5.61181L58.1341 5.10707L62.9184 9.33951L64.589 3.21767L66.237 2.73527L63.9561 10.3943Z" fill="white"/>
<path d="M73.8032 0.375889L74.8761 0.241779L76.8463 16.0032L75.7734 16.1373L73.8032 0.375889Z" fill="white"/>
</svg>
