<svg width="360" height="56" viewBox="0 0 360 56" fill="none" xmlns="http://www.w3.org/2000/svg">
<g clip-path="url(#clip0_80_16)">
<path d="M42.5474 33.9456H21.8215V55.8621H42.5474V33.9456Z" fill="#00A6D6"/>
<path d="M11.4434 33.9455C9.5463 33.9455 9.30283 32.6648 9.30283 30.8717V7.09033H0V32.4701C0 39.2633 4.76808 43.4847 11.4941 43.4847H39.2606V33.9455H11.4434Z" fill="white"/>
<path d="M66.3879 14.4368L59.2865 21.6706H66.3879V14.4368ZM72.982 13.6171V34.1095H66.3879V27.347H53.6561L46.9909 34.1095H36.6533L61.001 9.88752C61.6812 9.12885 62.5065 8.51713 63.427 8.08922C64.3476 7.66132 65.3444 7.42609 66.3574 7.39771C69.7458 7.39771 72.9516 8.96537 72.9516 13.5454L72.982 13.6171Z" fill="white"/>
<path d="M76.127 7.77686H113.125V14.5086H97.9587V34.0992H91.3949V14.5803H76.127V7.77686Z" fill="white"/>
<path d="M124.589 27.1523C123.219 27.1523 123.037 26.2302 123.037 24.9494V16.1787C123.037 15.3283 123.037 14.4778 124.629 14.4778H153.299V7.73587H124.66C122.566 7.64815 120.521 8.38928 118.959 9.80154C117.398 11.2138 116.444 13.1857 116.301 15.2975V26.0867C116.301 31.0049 119.76 34.0685 124.629 34.0685H153.37V27.1523H124.589Z" fill="white"/>
<path d="M163.849 7.73584V17.4697H187.446V7.73584H194.254V34.0992H187.345V24.1604H163.88V34.0992H157.042V7.73584H163.849Z" fill="white"/>
<path d="M250.152 7.43872H240.118V43.8331H250.152V7.43872Z" fill="white"/>
<path d="M254.869 15.5537C254.869 10.738 259.252 6.9469 263.999 6.9469C266.678 6.9469 269.072 8.08422 271.395 10.3896L295.895 34.2017V7.43872H305.025V34.2017C305.025 40.001 300.785 44.2327 295.895 44.2327C293.217 44.2327 291.461 43.2081 285.953 38.3309L263.979 16.691V43.8331H254.849L254.869 15.5537Z" fill="white"/>
<path d="M360 7.43872V16.7832H321.094C319.147 16.7832 318.903 18.2587 318.903 19.8571V21.0354H360V30.4311H318.954V31.2713C318.954 33.0336 319.197 34.3451 321.094 34.3451H360V43.8331H321.094C314.226 43.8331 309.55 39.2633 309.55 32.2754V19.0989C309.529 17.5642 309.814 16.0411 310.387 14.6199C310.961 13.1986 311.811 11.9083 312.888 10.8254C313.965 9.7426 315.246 8.88936 316.656 8.31637C318.066 7.74339 319.575 7.46235 321.094 7.48995L360 7.43872Z" fill="white"/>
<path d="M210.637 34.55C208.74 34.55 208.497 33.2692 208.497 31.4762V7.69482H199.194V33.0746C199.194 39.8678 203.962 44.0892 210.688 44.0892H238.404V34.55H210.637Z" fill="white"/>
<path fill-rule="evenodd" clip-rule="evenodd" d="M206.6 35.6874C207.202 35.6874 207.79 35.8677 208.291 36.2054C208.791 36.5432 209.181 37.0232 209.412 37.5849C209.642 38.1466 209.702 38.7646 209.585 39.3609C209.467 39.9572 209.177 40.5049 208.752 40.9348C208.326 41.3646 207.784 41.6574 207.193 41.776C206.603 41.8946 205.991 41.8337 205.435 41.6011C204.879 41.3684 204.404 40.9745 204.069 40.469C203.735 39.9635 203.556 39.3692 203.556 38.7612C203.556 37.946 203.877 37.1641 204.448 36.5877C205.018 36.0112 205.793 35.6874 206.6 35.6874Z" fill="white"/>
<path fill-rule="evenodd" clip-rule="evenodd" d="M21.8216 55.8621C22.7646 55.8621 23.6865 55.5797 24.4706 55.0505C25.2547 54.5214 25.8658 53.7693 26.2267 52.8893C26.5876 52.0093 26.682 51.0411 26.498 50.1069C26.314 49.1728 25.8599 48.3147 25.1931 47.6412C24.5263 46.9677 23.6767 46.5091 22.7518 46.3232C21.8268 46.1374 20.8681 46.2328 19.9969 46.5973C19.1256 46.9618 18.381 47.579 17.857 48.371C17.3331 49.1629 17.0535 50.094 17.0535 51.0464C17.0521 51.6792 17.1746 52.306 17.4137 52.8909C17.6528 53.4758 18.004 54.0072 18.447 54.4546C18.8901 54.9021 19.4162 55.2568 19.9953 55.4983C20.5744 55.7398 21.195 55.8635 21.8216 55.8621Z" fill="#00A6D6"/>
<path fill-rule="evenodd" clip-rule="evenodd" d="M42.5475 55.8621C43.491 55.8641 44.4138 55.5834 45.1993 55.0555C45.9847 54.5276 46.5974 53.7762 46.9598 52.8964C47.3223 52.0166 47.4182 51.048 47.2353 50.1132C47.0525 49.1784 46.5992 48.3193 45.9328 47.6448C45.2663 46.9703 44.4168 46.5106 43.4916 46.324C42.5664 46.1374 41.6072 46.2321 40.7353 46.5963C39.8635 46.9605 39.1182 47.5777 38.5938 48.3699C38.0695 49.162 37.7896 50.0935 37.7896 51.0464C37.7882 51.6783 37.9103 52.3043 38.1488 52.8885C38.3873 53.4727 38.7376 54.0037 39.1795 54.451C39.6215 54.8983 40.1464 55.2532 40.7244 55.4953C41.3023 55.7375 41.9218 55.8621 42.5475 55.8621Z" fill="#00A6D6"/>
<path d="M47.1431 33.9456H17.0535V51.0464H47.1431V33.9456Z" fill="#00A6D6"/>
<path fill-rule="evenodd" clip-rule="evenodd" d="M28.5273 52.6038C30.0201 52.6038 31.4793 52.1567 32.7206 51.3191C33.9618 50.4815 34.9292 49.2909 35.5005 47.8979C36.0718 46.505 36.2212 44.9722 35.93 43.4935C35.6388 42.0147 34.9199 40.6564 33.8643 39.5903C32.8088 38.5242 31.4639 37.7982 29.9998 37.504C28.5356 37.2099 27.018 37.3608 25.6389 37.9378C24.2597 38.5148 23.0809 39.4919 22.2515 40.7455C21.4222 41.9991 20.9795 43.473 20.9795 44.9807C20.9795 47.0025 21.7747 48.9414 23.1902 50.3711C24.6057 51.8007 26.5255 52.6038 28.5273 52.6038Z" fill="white"/>
<path fill-rule="evenodd" clip-rule="evenodd" d="M43.1765 35.5439C43.7784 35.5439 44.3669 35.7242 44.8674 36.062C45.3679 36.3997 45.7579 36.8798 45.9883 37.4415C46.2186 38.0032 46.2789 38.6212 46.1615 39.2175C46.0441 39.8137 45.7542 40.3614 45.3286 40.7913C44.9029 41.2212 44.3606 41.514 43.7703 41.6326C43.1799 41.7512 42.5679 41.6903 42.0118 41.4577C41.4557 41.225 40.9804 40.831 40.646 40.3255C40.3115 39.82 40.1331 39.2257 40.1331 38.6178C40.1331 37.8026 40.4537 37.0207 41.0245 36.4443C41.5952 35.8678 42.3693 35.5439 43.1765 35.5439Z" fill="white"/>
<path d="M43.1765 38.6486L206.6 38.8432" stroke="#00A6D6" stroke-width="2" stroke-miterlimit="22.93"/>
<path d="M251.308 0H238.13V19.3652H251.308V0Z" fill="white"/>
<path fill-rule="evenodd" clip-rule="evenodd" d="M244.724 6.77271C246.004 6.77271 247.255 7.15584 248.319 7.87369C249.383 8.59154 250.213 9.61188 250.703 10.8058C251.193 11.9997 251.322 13.3135 251.073 14.5813C250.824 15.8491 250.209 17.0139 249.304 17.9285C248.4 18.8432 247.248 19.4666 245.993 19.72C244.738 19.9733 243.437 19.8453 242.254 19.3521C241.071 18.8589 240.06 18.0227 239.347 16.949C238.635 15.8753 238.254 14.6125 238.252 13.32C238.252 12.462 238.419 11.6125 238.745 10.8199C239.07 10.0274 239.547 9.30743 240.148 8.70123C240.749 8.09502 241.463 7.61448 242.248 7.28708C243.033 6.95968 243.875 6.79185 244.724 6.7932" fill="#00A6D6"/>
<path fill-rule="evenodd" clip-rule="evenodd" d="M354.907 9.06787C355.509 9.06787 356.098 9.24815 356.598 9.58591C357.099 9.92367 357.489 10.4037 357.719 10.9654C357.949 11.5271 358.01 12.1451 357.892 12.7414C357.775 13.3377 357.485 13.8854 357.059 14.3153C356.634 14.7451 356.091 15.0379 355.501 15.1565C354.911 15.2751 354.299 15.2142 353.743 14.9816C353.186 14.7489 352.711 14.3549 352.377 13.8495C352.042 13.344 351.864 12.7497 351.864 12.1417C351.864 11.3265 352.184 10.5446 352.755 9.96818C353.326 9.39172 354.1 9.06787 354.907 9.06787Z" fill="white"/>
</g>
<defs>
<clipPath id="clip0_80_16">
<rect width="360" height="55.8621" fill="white"/>
</clipPath>
</defs>
</svg>
